<svg width="100" height="45" viewBox="0 0 100 45" fill="none" xmlns="http://www.w3.org/2000/svg">
<path d="M31.9178 43.9493C30.0489 39.2428 28.2358 34.7133 26.4601 30.1744C25.9944 28.9792 25.7243 27.7032 25.1996 26.5359C24.9637 26.0112 24.3769 25.4183 23.8615 25.3251C23.5076 25.263 22.8495 25.9243 22.598 26.4024C20.0709 31.23 17.5904 36.0855 15.116 40.9441C14.6131 41.9313 14.194 42.962 13.5917 44.297C12.7348 41.891 12.0301 39.8265 11.2664 37.7837C9.89729 34.1265 8.68342 30.3917 7.02869 26.8619C5.98246 24.6328 4.34326 22.6521 2.79099 20.6993C2.16697 19.9139 1.06796 19.5041 0 18.8025C1.26665 17.4799 2.5271 16.0922 3.89931 14.8255C4.08558 14.6517 4.92071 14.9621 5.30567 15.2447C8.39159 17.5048 10.006 20.7552 11.3099 24.2168C12.4648 27.2934 13.6569 30.3545 14.8459 33.4187C15.324 34.6481 16.6652 34.825 17.3203 33.5863C18.975 30.4569 20.5397 27.2748 21.9429 24.0243C22.6694 22.3447 21.7225 20.8111 20.6918 19.4761C19.2917 17.6693 19.2668 17.6879 20.8346 16.1543C20.9091 16.0829 20.9898 16.0115 21.0426 15.9277C22.5049 13.6396 22.9581 14.4033 24.4669 16.0115C26.7395 18.433 27.9937 21.4134 29.2014 24.4341C30.5177 27.728 31.8495 31.0157 33.2807 34.26C33.6098 35.1355 34.4853 35.8806 34.923 35.8278C35.2708 35.8775 35.7923 35.4615 36.435 34.3997L38.7696 30.5873C40.9148 27.4735 40.0983 23.3568 37.9903 20.9322C37.2825 20.1188 36.5157 19.3489 35.7271 18.6131C35.069 17.9984 34.9448 17.4954 35.6961 16.8466C36.5933 16.0736 37.3446 15.1205 38.3039 14.4499C38.7572 14.1332 39.7413 14.0028 40.1511 14.2791C42.287 15.7196 43.681 17.6165 43.7772 20.3734C43.8672 22.916 43.4388 25.1823 42.0418 27.3958C38.7789 32.5711 35.7054 37.8675 32.5481 43.1111C32.3711 43.406 32.1321 43.6637 31.9116 43.9493H31.9178Z" fill="#1A4A92"/>
<path d="M99.9947 41.4967C98.4269 44.0983 95.1237 44.4026 93.6149 42.1207C92.9381 41.0993 92.4444 39.7582 92.4103 38.5474C92.2551 32.8444 92.3016 27.1382 92.2333 21.4351C92.2271 20.8204 92.0657 19.7773 91.7583 19.6904C91.184 19.5227 90.3365 19.7463 89.7994 20.1002C87.4772 21.6307 85.2388 23.2948 82.9383 24.8564C81.948 25.53 81.4668 26.3869 81.473 27.5666C81.4947 31.4721 81.5133 35.3808 81.4978 39.2863C81.4978 39.7582 81.4388 40.4536 81.1377 40.6616C79.8462 41.5588 78.4523 42.3101 76.8814 43.2446C76.782 42.6175 76.6734 42.2449 76.6734 41.8724C76.6827 35.1852 76.723 28.5011 76.6982 21.8139C76.6671 21.2892 76.7541 19.3241 76.1083 19.5693C75.3663 19.8829 74.6678 20.1747 73.9569 20.4976C73.7333 20.6 73.5409 20.777 73.1621 20.7832C74.8758 18.3834 75.6923 15.3502 78.3591 13.6645C79.9611 12.6524 81.3674 13.4503 81.4481 15.3658C81.532 17.3682 81.4357 19.3799 81.5258 21.3824C81.5258 21.3886 81.5258 21.3979 81.5258 21.4041C81.5878 23.2948 81.9356 23.2203 82.1342 23.3165C82.3329 23.4127 82.9135 23.4345 84.1149 22.4596C86.2229 20.42 88.1447 18.1785 90.3116 16.204C91.5348 15.0895 93.0188 14.1674 94.5369 13.503C95.8843 12.9132 96.8188 13.6427 97.0671 15.1112C97.1882 15.8159 97.1913 16.5455 97.1913 17.2626C97.1851 23.6922 97.1634 30.1186 97.1603 36.5481C97.1603 37.4205 97.2254 38.2928 97.3093 39.1621C97.4614 40.7051 98.2344 41.6457 100.001 41.4905L99.9947 41.4967Z" fill="#1A4A92"/>
<path d="M80.9034 6.5998C78.0055 8.3349 75.067 9.99623 72.2128 11.8191C64.5954 16.6802 62.5148 24.4706 63.2416 33.6483C63.4443 36.1913 63.8374 38.7167 64.1212 41.2526C64.2054 42.0183 64.2148 42.798 64.2585 43.5672C64.1275 43.5883 63.9965 43.6129 63.8654 43.6339C63.2759 41.4387 62.6177 39.2646 62.1155 37.0448C60.9426 31.8641 59.8196 26.6869 60.0193 21.2533C60.1565 17.5232 61.6569 14.8819 64.3832 12.9466C67.9331 10.4283 71.8978 9.08302 75.8843 7.81507C77.5345 7.28822 79.2095 6.84566 80.8722 6.36447C80.8815 6.44174 80.894 6.51901 80.9034 6.5998Z" fill="#D74B18"/>
<path d="M35.4531 6.36447C37.2148 6.85601 39.0077 7.18718 40.6851 7.86348C44.3239 9.33459 48.0156 10.736 51.4797 12.6359C54.7755 14.4382 56.4062 17.5896 56.3594 21.9262C56.2815 29.4875 54.3483 36.5503 52.3995 43.6339C52.2436 43.606 52.0877 43.5782 51.9318 43.5503C52.2218 41.2599 52.4899 38.9696 52.8111 36.6862C53.3692 32.7156 53.3412 28.7798 52.7675 24.7953C52.0628 19.9043 49.7929 16.1603 46.2103 13.5004C42.7836 10.9591 39.1386 8.78728 35.4562 6.36796L35.4531 6.36447Z" fill="#D74B18"/>
<path d="M62.965 4.9624C62.9433 7.90241 61.0278 9.66579 57.8642 9.65648C55.1788 9.65027 53.0212 7.50813 53.0491 4.87548C53.0739 2.20867 55.5669 -0.063857 58.3889 0.00133845C61.1395 0.0665339 62.9867 2.06897 62.965 4.9593V4.9624Z" fill="#1A4A92"/>
</svg>
